<svg xmlns="http://www.w3.org/2000/svg" viewBox="0 0 1243.97 253.36"><defs><style>.cls-1{font-size:49px;font-family:Damion;}.cls-1,.cls-3,.cls-4{fill:#fff;}.cls-2{fill:#b074fa;}.cls-4{stroke:#fff;stroke-miterlimit:10;stroke-width:0.5px;}</style></defs><g id="Layer_2" data-name="Layer 2"><g id="Layer_3" data-name="Layer 3"><text class="cls-1" transform="translate(463.8 235.51)">Jouer en <tspan class="cls-2" x="172.15" y="0">Sécurité</tspan></text></g><g id="Layer_1-2" data-name="Layer 1"><path class="cls-2" d="M579.39,75.16c-6.19-4.58-11-10.49-15.61-16.54-7.34-9.6-14-19.72-21.8-29-5.88-7-12.21-13.51-20.14-18.25-10.21-6.1-21.09-7.84-32.4-4-15.35,5.28-24.6,16.22-26.86,32.24a41.19,41.19,0,0,0,.51,15,50.54,50.54,0,0,0,5.7,12.6c.57.88,1.15,1.7,1.74,2.47a47.43,47.43,0,0,0,7.83,7.57,7.74,7.74,0,0,1,.66.56c1.48,1.07,2.93,2,4.28,2.85A46.32,46.32,0,0,0,501.2,88c6.9,1.14,18.62,1.36,35.75-5.7-2.21,1.09-24.18,11.69-38,11a46.68,46.68,0,0,1-10.18-1.81,44.61,44.61,0,0,1-9-4.23A33.16,33.16,0,0,1,474.18,83c-9.66,9.33-13.57,21.07-11.48,35.1,3.91,26.16,32.65,40.8,56.2,28.74,9-4.6,15.92-11.59,22.36-19.15,7.16-8.4,13.31-17.55,20-26.34s13.08-17.61,23.34-23A40,40,0,0,1,579.39,75.16Z"/><path class="cls-3" d="M741.41,83.79,702,83.86l6-11.21h39.39Q744.39,78.22,741.41,83.79Z"/><path class="cls-3" d="M788.51,159.75a75.59,75.59,0,0,0,8.33-15.18,127.77,127.77,0,0,0,5.36-15.86,105.63,105.63,0,0,0,2.86-14.61,102.1,102.1,0,0,0,.8-11.41,102.41,102.41,0,0,0-.8-11.41,105.79,105.79,0,0,0-2.86-14.6,122.6,122.6,0,0,0-5.36-15.75,83.31,83.31,0,0,0-8.33-15.29h42.68a88.35,88.35,0,0,0-8.45,15.29,114.91,114.91,0,0,0-5.47,15.75,104.33,104.33,0,0,0-2.86,14.6,102.41,102.41,0,0,0-.8,11.41,102.1,102.1,0,0,0,.8,11.41,104.17,104.17,0,0,0,2.86,14.61,119.56,119.56,0,0,0,5.47,15.86,79.73,79.73,0,0,0,8.45,15.18Zm9.13-144.69A11.84,11.84,0,0,1,801,6.28a13.31,13.31,0,0,1,17.57,0,11.88,11.88,0,0,1,3.31,8.78,11.92,11.92,0,0,1-3.31,8.79,13.31,13.31,0,0,1-17.57,0A11.88,11.88,0,0,1,797.64,15.06Z"/><path class="cls-3" d="M905.81,66q0,6.39.8,15.06t2,18.26q1.26,9.58,3.09,19.17t3.76,17.91q1.93,8.34,4,14.49a33,33,0,0,0,4.11,8.91H880.25q2.06-2.52,4.23-8.68a142.62,142.62,0,0,0,4.1-14.37q1.93-8.22,3.65-17.69t3-18.94q1.26-9.46,2-18.14t.8-15.06V7.07a45.75,45.75,0,0,0-13.46,3.54,90.78,90.78,0,0,0-15.06,8A122.73,122.73,0,0,0,855,29.67a78.89,78.89,0,0,0-11.76,12.78V0H960.13V42.45A75.79,75.79,0,0,0,948.6,29.9,119.06,119.06,0,0,0,934,18.83a102,102,0,0,0-15.18-8.1,43.91,43.91,0,0,0-13-3.66Z"/><path class="cls-3" d="M345.82,95.28q-28.89,0-44.33-11.25t-15.44-34.4A54,54,0,0,1,289.8,29a46.33,46.33,0,0,1,10.37-15.66,44.94,44.94,0,0,1,15.44-9.92A53.16,53.16,0,0,1,370.53,13.9a47.68,47.68,0,0,1,10.8,15,43.15,43.15,0,0,1,4,18.31h-7.5q0-2.87-2.64-6.51a26.82,26.82,0,0,0-7.94-6.83,52.59,52.59,0,0,0-13.57-5.41,76.35,76.35,0,0,0-19.52-2.2,80.51,80.51,0,0,0-17.2,1.65,50.11,50.11,0,0,0-12.68,4.41,24.37,24.37,0,0,0-7.94,6.29,12,12,0,0,0-2.76,7.5,13.29,13.29,0,0,0,3.53,8.6,29.84,29.84,0,0,0,10.37,7.39,71,71,0,0,0,16.43,5.07A115.11,115.11,0,0,0,345.82,69q23.6,0,35.62,10.25t12,28.56A50,50,0,0,1,389.38,128a47.15,47.15,0,0,1-11.58,16.21,54.4,54.4,0,0,1-17.75,10.69,63.83,63.83,0,0,1-22.61,3.86,75.62,75.62,0,0,1-21.28-2.86,101.89,101.89,0,0,1-16.88-6.4,73.78,73.78,0,0,1-15.43-9.48l.22-31.32a103.36,103.36,0,0,0,17.86,15A96.87,96.87,0,0,0,322.11,134a71.12,71.12,0,0,0,25.7,4.52,64.4,64.4,0,0,0,14.89-1.65,43.79,43.79,0,0,0,12-4.63,27,27,0,0,0,8-6.95,14.09,14.09,0,0,0,3-8.6,13.36,13.36,0,0,0-3.08-8.5,27.06,27.06,0,0,0-8.39-6.72,49,49,0,0,0-12.57-4.52A71.15,71.15,0,0,0,345.82,95.28Z"/><path class="cls-3" d="M612.41,72.66q7.49,0,12.79-7.8a50.65,50.65,0,0,0,7.49-19,74.25,74.25,0,0,0,.62-23.56,47.64,47.64,0,0,0-7.49-21.06h55.23q-5.92,8.43-12.64,20T654.37,44a238.45,238.45,0,0,1-15.13,20.75q-7.8,9.51-15.91,13.57,8.11,4.36,16.69,14a240.38,240.38,0,0,1,16.69,21.21q8.12,11.55,15.6,23.4t13.42,20.28H627.39q5.91-8.73,7.17-21.37a74.9,74.9,0,0,0-1.4-24.18A58.52,58.52,0,0,0,625.05,92q-5.47-8.12-12.64-8.12T599.77,92a58.32,58.32,0,0,0-8.11,19.65,77.47,77.47,0,0,0-1.56,24.18q1.1,12.65,7.33,21.37h-58q5.93-8.42,13.26-20.28t15.45-23.4A236.7,236.7,0,0,1,584.8,92.32q8.58-9.67,16.69-14-8.12-4.05-15.91-13.57A236.38,236.38,0,0,1,570.45,44q-7.34-11.24-14-22.78t-12.64-20H599a44.14,44.14,0,0,0-7.64,21.06,76.87,76.87,0,0,0,.78,23.56,50.48,50.48,0,0,0,7.49,19Q604.92,72.66,612.41,72.66Z"/><path class="cls-3" d="M442.59,66.25a40.5,40.5,0,0,0,9.83,9.89l1.32.94a7.64,7.64,0,0,0,1.17.6l.81.28.81.26.82.25.82.23.82.23.83.21.83.21.12,0,0,0h-.06l-.1,0-.21.07-.42.12-.85.24-.84.25-.85.24-.84.25-.85.24a11.79,11.79,0,0,0-1.79.75,6.91,6.91,0,0,0-.89.51l-.33.26-.19.15a45.3,45.3,0,0,0-14.32,18.87,41.57,41.57,0,0,0-2.1,23.61,38.19,38.19,0,0,0,1.72,5.8c.41.92.74,1.89,1.23,2.77a28.85,28.85,0,0,0,1.42,2.7,40.37,40.37,0,0,0,7.73,9.59,48.3,48.3,0,0,0,22.51,11.36c-31.39,7.71-58.75-13.92-60.29-36.65-1.24-18.16,13.94-38.21,37.54-44l-1.45,2.64,0-.33,1.57,3.39c-23-6.23-38.19-24.89-37.69-42.11.64-22.43,28-45.81,61.73-38.92a45.05,45.05,0,0,0-23.07,11,40.88,40.88,0,0,0-11.2,45.05,40.18,40.18,0,0,0,2,4.55c.39.73.8,1.46,1.22,2.17.31.5.64,1,.95,1.49.21.35.31.75.49,1.12a5.19,5.19,0,0,0,1.07,1.22L445,69.08c.92.83,1.87,1.62,2.85,2.39s2,1.49,3,2.18,2.08,1.35,3.16,2,2.17,1.19,3.28,1.73,2.25,1,3.41,1.5c.51.21,1,.41,1.56.6a50.24,50.24,0,0,0-22.38,17.3"/><line class="cls-4" x1="437.79" y1="66.94" x2="436.65" y2="65.34"/></g></g></svg>