<svg xmlns="http://www.w3.org/2000/svg" viewBox="0 0 676.28 236.54"><defs><style>.cls-1,.cls-3{fill:#fff;}.cls-2{fill:#b074fa;}.cls-3{stroke:#fff;stroke-miterlimit:10;stroke-width:0.5px;}</style></defs><g id="Layer_2" data-name="Layer 2"><g id="Layer_3" data-name="Layer 3"><path class="cls-1" d="M210.2,220.29a65.27,65.27,0,0,1-3.22,6.24,33.08,33.08,0,0,1-3.71,5.18,18.23,18.23,0,0,1-4.13,3.53,8.55,8.55,0,0,1-4.45,1.3,8.85,8.85,0,0,1-2.7-.43,11.86,11.86,0,0,1-2.79-1.35,18.52,18.52,0,0,1-2.87-2.37,29.83,29.83,0,0,1-2.93-3.51,2.38,2.38,0,0,1-.5-.81,2.56,2.56,0,0,1-.15-.89,2.39,2.39,0,0,1,.23-.88,3.85,3.85,0,0,1,.66-1,4.14,4.14,0,0,1,1.05-.83,2.78,2.78,0,0,1,1.41-.35,2.17,2.17,0,0,1,.89.17,1.87,1.87,0,0,1,.74.57,20.32,20.32,0,0,0,3.79,5.6,5.52,5.52,0,0,0,3.72,1.77,4.81,4.81,0,0,0,2.67-.87,11.53,11.53,0,0,0,2.64-2.54,30.12,30.12,0,0,0,2.65-4.06q1.32-2.38,2.67-5.43l6.86-14.23-4.22,0h-2.28a1.55,1.55,0,0,1-.78-.19,2.15,2.15,0,0,1-.6-.48,2.23,2.23,0,0,1-.4-.64,2,2,0,0,1-.14-.7,1.34,1.34,0,0,1,.53-1.09,2.75,2.75,0,0,1,1.67-.41h.89c1.18,0,2.36,0,3.55-.1l3.54-.2,3.52-.2c1.17-.07,2.33-.1,3.48-.1.91,0,1.65,0,2.24.09a6.22,6.22,0,0,1,1.37.24,1.39,1.39,0,0,1,.7.39.86.86,0,0,1,.19.53,2,2,0,0,1-.18.79,1.89,1.89,0,0,1-.68.75,4.21,4.21,0,0,1-1.43.56,11,11,0,0,1-2.4.22c-.46,0-1,0-1.52.06s-1.15.1-1.81.18Z"/><path class="cls-1" d="M223,218.12a8.65,8.65,0,0,1,2,.24,6.19,6.19,0,0,1,1.93.81,4.75,4.75,0,0,1,1.47,1.52,4.35,4.35,0,0,1,.58,2.33,8,8,0,0,1-.19,1.64,13.76,13.76,0,0,1-.57,1.93,1.32,1.32,0,0,0,.55.4,1.81,1.81,0,0,0,.67.12,2.67,2.67,0,0,0,1.11-.28,8.51,8.51,0,0,0,1.26-.75,14.37,14.37,0,0,0,1.29-1c.43-.39.84-.77,1.22-1.15s.73-.75,1-1.09l.78-.88a.54.54,0,0,1,.4-.16.73.73,0,0,1,.6.34,1.57,1.57,0,0,1,.26,1,3.48,3.48,0,0,1-.37,1.44,5.24,5.24,0,0,1-1.37,1.7l-1.32,1.43a16.31,16.31,0,0,1-1.58,1.53,10.35,10.35,0,0,1-1.74,1.22,3.72,3.72,0,0,1-1.82.51,4.08,4.08,0,0,1-1.21-.19,4.24,4.24,0,0,1-1.18-.63,14.22,14.22,0,0,1-2,2.44,11.53,11.53,0,0,1-2.45,1.89,12.12,12.12,0,0,1-6.26,1.68,5.75,5.75,0,0,1-1.55-.26,5.37,5.37,0,0,1-1.69-.88,5,5,0,0,1-1.35-1.59,4.77,4.77,0,0,1-.55-2.39,10.23,10.23,0,0,1,.31-2.3,15.09,15.09,0,0,1,1-2.76,16.72,16.72,0,0,1,1.6-2.82,12.54,12.54,0,0,1,2.31-2.52,11,11,0,0,1,3.06-1.79A10.24,10.24,0,0,1,223,218.12Zm-1.24,4.21a4.55,4.55,0,0,0-2.17.56,6.52,6.52,0,0,0-1.84,1.48,7.53,7.53,0,0,0-1.28,2.08,6.21,6.21,0,0,0-.48,2.38,7.22,7.22,0,0,0,.07,1,3.32,3.32,0,0,0,.3,1,2.06,2.06,0,0,0,.66.78,1.89,1.89,0,0,0,1.15.31,4.33,4.33,0,0,0,2.14-.58,6.94,6.94,0,0,0,1.85-1.54,7.59,7.59,0,0,0,1.29-2.14,6.39,6.39,0,0,0,.48-2.41,8.78,8.78,0,0,0-.06-1,2.7,2.7,0,0,0-.28-.94,2,2,0,0,0-.66-.71A2.2,2.2,0,0,0,221.71,222.33Z"/><path class="cls-1" d="M258.31,229.79a19.59,19.59,0,0,1-2.45,2.33,24.7,24.7,0,0,1-2.88,2,18.58,18.58,0,0,1-2.92,1.42,7.46,7.46,0,0,1-2.59.54,2.69,2.69,0,0,1-1.86-.65,2.84,2.84,0,0,1-.72-2.2,10.5,10.5,0,0,1,.38-2.56,13.3,13.3,0,0,1-1.55,1.89,13.61,13.61,0,0,1-2.13,1.75,11.65,11.65,0,0,1-2.68,1.28,10.17,10.17,0,0,1-3.23.49,6.87,6.87,0,0,1-1.52-.17,3.39,3.39,0,0,1-1.28-.57,3,3,0,0,1-.89-1.09,4,4,0,0,1-.33-1.71s0-.26.09-.73a14.88,14.88,0,0,1,.61-2.23c.35-1,.88-2.32,1.6-3.93s1.73-3.57,3-5.86a3.44,3.44,0,0,1,1.16-1.31,2.77,2.77,0,0,1,1.43-.39,2.82,2.82,0,0,1,.69.08,2.59,2.59,0,0,1,.67.26,1.48,1.48,0,0,1,.5.46,1.05,1.05,0,0,1,.2.63,1.44,1.44,0,0,1-.08.46,5.12,5.12,0,0,1-.51,1.06c-.26.44-.57.94-.92,1.51s-.72,1.17-1.11,1.83a20.76,20.76,0,0,0-1.09,2,16.21,16.21,0,0,0-.86,2.14,7.93,7.93,0,0,0-.41,2.12,1.39,1.39,0,0,0,.24.79.88.88,0,0,0,.79.36,5.64,5.64,0,0,0,3-.86,12.55,12.55,0,0,0,2.61-2.14,21.33,21.33,0,0,0,2.17-2.75c.64-1,1.18-1.88,1.61-2.7a11.54,11.54,0,0,0,.8-1.74,18.69,18.69,0,0,1,.76-1.73,5.28,5.28,0,0,1,.93-1.31,1.79,1.79,0,0,1,1.32-.53,1.77,1.77,0,0,1,1.36.55,1.88,1.88,0,0,1,.5,1.32,3.12,3.12,0,0,1-.32,1.18c-.22.51-.49,1.08-.81,1.73l-1.07,2.07c-.38.73-.74,1.47-1.06,2.23a20.27,20.27,0,0,0-.82,2.23,7.29,7.29,0,0,0-.32,2c0,.57.35.86,1.05.86a5.24,5.24,0,0,0,1.85-.43,13.17,13.17,0,0,0,2.3-1.21,20.53,20.53,0,0,0,2.42-1.83,15.22,15.22,0,0,0,2.14-2.27Z"/><path class="cls-1" d="M265.78,218.09a4.07,4.07,0,0,1,3,1,3.52,3.52,0,0,1,1,2.66,4.85,4.85,0,0,1-.52,2.1,7.38,7.38,0,0,1-1.82,2.24,19,19,0,0,1-3.46,2.32,40.83,40.83,0,0,1-5.42,2.38,1.57,1.57,0,0,0,.74,1.09,3.11,3.11,0,0,0,1.66.39,9.66,9.66,0,0,0,2.35-.32,19.13,19.13,0,0,0,2.49-.83c.82-.33,1.62-.69,2.41-1.08s1.48-.77,2.11-1.12,1.16-.65,1.58-.91a9.53,9.53,0,0,1,.85-.47.85.85,0,0,1,.4-.17l.32,0a.83.83,0,0,1,.48.14,1.34,1.34,0,0,1,.32.31,1,1,0,0,1,.18.38,1.72,1.72,0,0,1,.05.35,3.62,3.62,0,0,1-.05.51,1.46,1.46,0,0,1-.36.68c-.08.08-.35.3-.8.65s-1,.76-1.76,1.24-1.55,1-2.5,1.52a27.1,27.1,0,0,1-3,1.47,24,24,0,0,1-3.32,1.12,13.86,13.86,0,0,1-3.4.44,5.61,5.61,0,0,1-2.54-.55,5.74,5.74,0,0,1-1.89-1.48,6.58,6.58,0,0,1-1.19-2.16,8.07,8.07,0,0,1-.4-2.56,7.29,7.29,0,0,1,.4-2.26,11.81,11.81,0,0,1,1.17-2.48,15.21,15.21,0,0,1,1.88-2.42,14.06,14.06,0,0,1,2.5-2.1,13.42,13.42,0,0,1,3.05-1.46A11.49,11.49,0,0,1,265.78,218.09Zm-.86,3.3-.22,0h-.22a4,4,0,0,0-1.69.36,5.73,5.73,0,0,0-1.45.94,7.8,7.8,0,0,0-1.17,1.33c-.35.5-.65,1-.93,1.47s-.49,1-.68,1.4-.32.83-.42,1.13c.56-.29,1.14-.62,1.74-1l1.69-1.06c.52-.33,1-.63,1.37-.9s.67-.46.83-.56a5,5,0,0,0,1.48-1.25,1.9,1.9,0,0,0,.41-1,.75.75,0,0,0-.23-.57A1,1,0,0,0,264.92,221.39Z"/><path class="cls-1" d="M280.23,221.56q.93-.57,1.92-1.05c.67-.32,1.31-.6,1.93-.83a16.94,16.94,0,0,1,1.78-.55,6.91,6.91,0,0,1,1.52-.2,2.44,2.44,0,0,1,1.66.51,2.21,2.21,0,0,1,.59,1.74c0,.17,0,.36,0,.56a5.59,5.59,0,0,1-.1.64,3.88,3.88,0,0,1-.72,1.45,19.84,19.84,0,0,1-1.4,1.75c-.53.61-1.11,1.22-1.72,1.83l-1.7,1.7q-.78.78-1.29,1.35c-.34.38-.51.65-.51.79a.8.8,0,0,0,0,.26c0,.05.09.08.21.08.87-.37,1.83-.81,2.89-1.33s2.12-1,3.17-1.59,2.05-1.07,3-1.59,1.74-1,2.39-1.35a3.55,3.55,0,0,1,.44-.21,1.4,1.4,0,0,1,.42-.08.94.94,0,0,1,.72.29,1,1,0,0,1,.29.76,2.38,2.38,0,0,1-.47,1.26,5.79,5.79,0,0,1-1.57,1.47l-1.87,1.18-2.18,1.37c-.76.47-1.52.93-2.3,1.37s-1.52.85-2.24,1.2a18,18,0,0,1-2,.85,5.3,5.3,0,0,1-1.64.32,3.43,3.43,0,0,1-2.47-.79,2.69,2.69,0,0,1-.83-2,1,1,0,0,1,0-.29,7.33,7.33,0,0,1,.62-2,13.51,13.51,0,0,1,1-1.87c.38-.59.78-1.15,1.19-1.69s.8-1,1.14-1.5A13,13,0,0,0,283,224a2.29,2.29,0,0,0,.33-1.1.67.67,0,0,0,0-.24.22.22,0,0,0-.22-.12,3.27,3.27,0,0,0-.94.22,10.32,10.32,0,0,0-1.4.57,10.54,10.54,0,0,0-1.42.83,3,3,0,0,0-1,1c-.26.45-.55,1-.89,1.7l-1,2.15c-.36.75-.7,1.49-1,2.23l-.86,1.89a4.56,4.56,0,0,1-.75,1.24,5.61,5.61,0,0,1-1,.94,5.09,5.09,0,0,1-1.13.59,2.87,2.87,0,0,1-1.05.22,1.25,1.25,0,0,1-.87-.29,1.17,1.17,0,0,1-.32-.93,2.93,2.93,0,0,1,.08-.66,3,3,0,0,1,.35-.87c.28-.54.57-1.14.87-1.77s.63-1.37,1-2.19l1.32-2.83c.51-1.06,1.1-2.28,1.79-3.67a2.46,2.46,0,0,1-.57-.7,2.19,2.19,0,0,1-.22-1,1.91,1.91,0,0,1,.88-1.68,2.8,2.8,0,0,1,.95-.39A4.6,4.6,0,0,1,277,219a7.54,7.54,0,0,1,1.25.11,5,5,0,0,1,1.11.32,2.65,2.65,0,0,1,.8.53,1,1,0,0,1,.31.72.54.54,0,0,1,0,.19c0,.08-.07.17-.11.26l-.11.27a.59.59,0,0,0-.05.19s0,.05,0,.05h0Z"/><path class="cls-1" d="M314.27,218.09a4.08,4.08,0,0,1,3,1,3.56,3.56,0,0,1,1,2.66,4.85,4.85,0,0,1-.52,2.1,7.53,7.53,0,0,1-1.82,2.24,19.31,19.31,0,0,1-3.46,2.32,40.83,40.83,0,0,1-5.42,2.38,1.57,1.57,0,0,0,.74,1.09,3.1,3.1,0,0,0,1.65.39,9.73,9.73,0,0,0,2.36-.32,19.13,19.13,0,0,0,2.49-.83q1.23-.5,2.4-1.08c.78-.39,1.49-.77,2.12-1.12s1.16-.65,1.58-.91a9.53,9.53,0,0,1,.85-.47.82.82,0,0,1,.39-.17l.33,0a.77.77,0,0,1,.47.14,1.22,1.22,0,0,1,.33.31,1,1,0,0,1,.18.38,1.72,1.72,0,0,1,.05.35,3.62,3.62,0,0,1-.05.51,1.46,1.46,0,0,1-.36.68c-.08.08-.35.3-.8.65s-1,.76-1.76,1.24-1.55,1-2.5,1.52a27.26,27.26,0,0,1-3,1.47,23.84,23.84,0,0,1-3.31,1.12,13.86,13.86,0,0,1-3.4.44,5.69,5.69,0,0,1-2.55-.55,5.84,5.84,0,0,1-1.89-1.48,6.75,6.75,0,0,1-1.18-2.16,8.07,8.07,0,0,1-.41-2.56,7.33,7.33,0,0,1,.41-2.26,11.81,11.81,0,0,1,1.17-2.48,15.21,15.21,0,0,1,1.88-2.42,14.06,14.06,0,0,1,2.5-2.1,13.42,13.42,0,0,1,3.05-1.46A11.43,11.43,0,0,1,314.27,218.09Zm-.86,3.3-.21,0H313a4.08,4.08,0,0,0-1.7.36,5.67,5.67,0,0,0-1.44.94,8.32,8.32,0,0,0-1.18,1.33c-.34.5-.65,1-.92,1.47a13.65,13.65,0,0,0-.68,1.4c-.18.45-.32.83-.42,1.13.56-.29,1.14-.62,1.74-1s1.16-.72,1.68-1.06,1-.63,1.38-.9.66-.46.82-.56a5,5,0,0,0,1.49-1.25,1.87,1.87,0,0,0,.4-1,.74.74,0,0,0-.22-.57A1,1,0,0,0,313.41,221.39Z"/><path class="cls-1" d="M324.2,221a3.67,3.67,0,0,1,1.2-1.53,2.44,2.44,0,0,1,1.41-.51,1.48,1.48,0,0,1,1,.42,1.6,1.6,0,0,1,.45,1.23,3.18,3.18,0,0,1-.07.67,3.33,3.33,0,0,1-.26.77,7.43,7.43,0,0,1,1.51-1.38,13.31,13.31,0,0,1,2.16-1.26,14.38,14.38,0,0,1,2.44-.92,8.66,8.66,0,0,1,2.38-.36,3.52,3.52,0,0,1,2.12.61,2.35,2.35,0,0,1,.85,2.07,6.8,6.8,0,0,1-.26,1.79,16.27,16.27,0,0,1-.68,1.87c-.28.62-.6,1.23-.94,1.83s-.68,1.16-1,1.68l-.93,1.45c-.28.44-.49.8-.65,1.09a1.37,1.37,0,0,0-.32.89.52.52,0,0,0,.12.33.47.47,0,0,0,.39.14l.38,0a1.62,1.62,0,0,0,.53-.25,21.72,21.72,0,0,0,2.64-1.2c.9-.48,1.77-1,2.6-1.52s1.59-1.07,2.28-1.6,1.27-1,1.74-1.45a1.21,1.21,0,0,1,.38-.24,1,1,0,0,1,.36-.07.73.73,0,0,1,.63.31,1.32,1.32,0,0,1,.23.79,3.69,3.69,0,0,1-.47,1.65A5.23,5.23,0,0,1,345,230l-2.5,1.79c-.76.55-1.53,1.05-2.32,1.52a26.28,26.28,0,0,1-2.54,1.32,24.28,24.28,0,0,1-3.17,1.14,10.89,10.89,0,0,1-1.13.28,4.8,4.8,0,0,1-.95.1,2.28,2.28,0,0,1-1.85-.71,3,3,0,0,1-.59-2c0-.11,0-.22,0-.32s0-.22,0-.35a5.41,5.41,0,0,1,.39-1.63c.24-.59.51-1.19.84-1.82s.68-1.24,1-1.85.71-1.2,1-1.75.57-1,.78-1.47a2.7,2.7,0,0,0,.31-1.05.92.92,0,0,0-.21-.61.71.71,0,0,0-.61-.25,5.12,5.12,0,0,0-2.9.91,13.06,13.06,0,0,0-2.57,2.23,26.12,26.12,0,0,0-2.21,2.82c-.67,1-1.26,1.87-1.77,2.65a14.12,14.12,0,0,0-.87,1.69,18.56,18.56,0,0,1-.83,1.67,5,5,0,0,1-1,1.29,1.86,1.86,0,0,1-1.36.52,1.69,1.69,0,0,1-1.31-.53,1.84,1.84,0,0,1-.48-1.29,4.53,4.53,0,0,1,.33-1.32c.23-.6.51-1.3.87-2.1s.74-1.66,1.18-2.57.88-1.83,1.32-2.73.85-1.75,1.25-2.55S324,221.55,324.2,221Z"/><path class="cls-2" d="M364.9,222.18a1.1,1.1,0,0,1,1,.57,2.56,2.56,0,0,1,.32,1.28,2.3,2.3,0,0,1-.07.62,1.14,1.14,0,0,1-.29.49,2.49,2.49,0,0,1-.57.43,9.75,9.75,0,0,1-.94.44,6.33,6.33,0,0,0-2.1,1.38,2.33,2.33,0,0,0-.77,1.59,1.65,1.65,0,0,0,.34,1,2.74,2.74,0,0,0,1.05.8,7.53,7.53,0,0,0,1.86.55,16.36,16.36,0,0,0,2.74.2,12.26,12.26,0,0,0,3.13-.39,9.32,9.32,0,0,0,2.6-1.12,6.1,6.1,0,0,0,1.77-1.69,3.84,3.84,0,0,0,.65-2.13,3,3,0,0,0-.71-1.8,9.14,9.14,0,0,0-2.28-1.94c-1.83-1.19-3.22-2.16-4.17-2.89s-1.54-1.2-1.76-1.39a13.29,13.29,0,0,1-2.68-3,5.76,5.76,0,0,1-.89-3,6.19,6.19,0,0,1,.71-2.84,10.61,10.61,0,0,1,1.9-2.61,16.5,16.5,0,0,1,2.77-2.26,19.94,19.94,0,0,1,3.27-1.78,20.64,20.64,0,0,1,3.45-1.17,14.51,14.51,0,0,1,3.29-.41,8.2,8.2,0,0,1,2.16.26,4.91,4.91,0,0,1,1.74.82,4,4,0,0,1,1.16,1.45,4.93,4.93,0,0,1,.42,2.13,6.24,6.24,0,0,1-1,3.42,10.6,10.6,0,0,1-3.13,3,3.14,3.14,0,0,1-1.73.65,1.59,1.59,0,0,1-1.29-.59,2.1,2.1,0,0,1-.48-1.37,2.54,2.54,0,0,1,.4-1.34,3.16,3.16,0,0,1,1.28-1.15,4.22,4.22,0,0,0,1.23-1,1.83,1.83,0,0,0,.54-1.19.71.71,0,0,0-.37-.71,2.07,2.07,0,0,0-.9-.17,10.43,10.43,0,0,0-2.19.25,17.59,17.59,0,0,0-2.37.68,18.16,18.16,0,0,0-2.3,1,12.79,12.79,0,0,0-2,1.29,7.11,7.11,0,0,0-1.36,1.47,2.84,2.84,0,0,0-.52,1.55,2.34,2.34,0,0,0,.22,1,3.74,3.74,0,0,0,.63.91,9.61,9.61,0,0,0,1,.94c.4.33.86.68,1.39,1.07l5.6,4.14c.71.52,1.36,1,1.92,1.54a10.49,10.49,0,0,1,1.43,1.51,6.78,6.78,0,0,1,.88,1.52,4.21,4.21,0,0,1,.31,1.62,7.79,7.79,0,0,1-1,3.75,10.42,10.42,0,0,1-2.82,3.26A14.85,14.85,0,0,1,373,235.1a17.39,17.39,0,0,1-5.7.89,22.78,22.78,0,0,1-5-.47,11.18,11.18,0,0,1-3.36-1.27,5.21,5.21,0,0,1-1.91-1.84,4.3,4.3,0,0,1-.6-2.19,5.46,5.46,0,0,1,.61-2.43,9,9,0,0,1,1.72-2.33,12,12,0,0,1,2.67-2A14.29,14.29,0,0,1,364.9,222.18Z"/><path class="cls-2" d="M394.59,218.09a4.08,4.08,0,0,1,3,1,3.56,3.56,0,0,1,1,2.66,4.85,4.85,0,0,1-.52,2.1,7.53,7.53,0,0,1-1.82,2.24,19.31,19.31,0,0,1-3.46,2.32,40.83,40.83,0,0,1-5.42,2.38,1.57,1.57,0,0,0,.74,1.09,3.1,3.1,0,0,0,1.65.39,9.73,9.73,0,0,0,2.36-.32,19.13,19.13,0,0,0,2.49-.83q1.23-.5,2.4-1.08c.78-.39,1.49-.77,2.12-1.12s1.16-.65,1.58-.91a8.27,8.27,0,0,1,.85-.47.82.82,0,0,1,.39-.17l.33,0a.77.77,0,0,1,.47.14,1.22,1.22,0,0,1,.33.31,1.33,1.33,0,0,1,.18.38,1.63,1.63,0,0,1,0,.35,3.44,3.44,0,0,1,0,.51,1.56,1.56,0,0,1-.36.68c-.08.08-.35.3-.8.65s-1,.76-1.76,1.24-1.55,1-2.5,1.52a27.26,27.26,0,0,1-3,1.47,23.84,23.84,0,0,1-3.31,1.12,13.86,13.86,0,0,1-3.4.44,5.69,5.69,0,0,1-2.55-.55,5.84,5.84,0,0,1-1.89-1.48,6.75,6.75,0,0,1-1.18-2.16,8.07,8.07,0,0,1-.41-2.56,7.33,7.33,0,0,1,.41-2.26,11.81,11.81,0,0,1,1.17-2.48,15.21,15.21,0,0,1,1.88-2.42,14.06,14.06,0,0,1,2.5-2.1,13.22,13.22,0,0,1,3.05-1.46A11.43,11.43,0,0,1,394.59,218.09Zm-.86,3.3-.21,0h-.22a4.05,4.05,0,0,0-1.7.36,5.91,5.91,0,0,0-1.45.94A8.77,8.77,0,0,0,389,224c-.34.5-.65,1-.92,1.47a13.65,13.65,0,0,0-.68,1.4c-.18.45-.32.83-.42,1.13.56-.29,1.14-.62,1.74-1s1.16-.72,1.68-1.06,1-.63,1.38-.9.66-.46.82-.56a5,5,0,0,0,1.49-1.25,1.87,1.87,0,0,0,.4-1,.74.74,0,0,0-.22-.57A1,1,0,0,0,393.73,221.39Zm3.54-8.42,1.74-3c.58-1,1.15-2,1.71-3a6.59,6.59,0,0,1,1.86-2.13,3.32,3.32,0,0,1,1.73-.62,1.58,1.58,0,0,1,1.17.45,1.65,1.65,0,0,1,.45,1.2,3.06,3.06,0,0,1-.21,1.05,3.83,3.83,0,0,1-.77,1.2c-.86,1-1.72,2-2.59,3s-1.74,2-2.6,3a4.54,4.54,0,0,1-1.32,1.22,2.45,2.45,0,0,1-1.17.41.67.67,0,0,1-.74-.77A4.73,4.73,0,0,1,397.27,213Z"/><path class="cls-2" d="M413.57,220.32a9.23,9.23,0,0,1-.17,1.64,6.76,6.76,0,0,1-.55,1.68,4.14,4.14,0,0,1-1,1.32,2.19,2.19,0,0,1-1.49.53.86.86,0,0,1-.61-.15.77.77,0,0,1-.13-.5c0-.14,0-.35,0-.63s0-.55,0-.81a2,2,0,0,0-.12-.73c-.08-.19-.28-.29-.6-.29a2.45,2.45,0,0,0-1.23.41,8.17,8.17,0,0,0-1.37,1.09A15.49,15.49,0,0,0,405,225.4a18,18,0,0,0-1.17,1.72,11.19,11.19,0,0,0-.81,1.69,4.15,4.15,0,0,0-.3,1.39,1.59,1.59,0,0,0,.59,1.31,2.43,2.43,0,0,0,1.59.48,8.18,8.18,0,0,0,2.3-.36,17.75,17.75,0,0,0,2.42-.9q1.22-.55,2.34-1.2t2-1.23c.62-.39,1.13-.73,1.55-1a7.63,7.63,0,0,1,.81-.51,1.58,1.58,0,0,1,.72-.19.88.88,0,0,1,.49.13,1.18,1.18,0,0,1,.32.31,1.17,1.17,0,0,1,.17.38,1.72,1.72,0,0,1,.05.35,3.62,3.62,0,0,1-.05.51,1.46,1.46,0,0,1-.36.68,10,10,0,0,1-.78.73c-.44.4-1,.85-1.7,1.38s-1.49,1.09-2.39,1.69a25.2,25.2,0,0,1-2.89,1.64,22.49,22.49,0,0,1-3.2,1.23,11.25,11.25,0,0,1-3.25.49,5.84,5.84,0,0,1-2.17-.38,4.82,4.82,0,0,1-1.59-1,4.4,4.4,0,0,1-1-1.55,5.29,5.29,0,0,1-.34-1.86,7.36,7.36,0,0,1,.51-2.48,15.6,15.6,0,0,1,1.39-2.86,22.34,22.34,0,0,1,2.08-2.87,17.51,17.51,0,0,1,2.59-2.51,13.32,13.32,0,0,1,2.92-1.77,7.51,7.51,0,0,1,3.08-.67,4,4,0,0,1,1,.12,2.32,2.32,0,0,1,.81.37,1.63,1.63,0,0,1,.55.68A2.34,2.34,0,0,1,413.57,220.32Z"/><path class="cls-2" d="M441,229.79a18.92,18.92,0,0,1-2.45,2.33,23.88,23.88,0,0,1-2.88,2,18.16,18.16,0,0,1-2.92,1.42,7.45,7.45,0,0,1-2.58.54,2.69,2.69,0,0,1-1.87-.65,2.84,2.84,0,0,1-.72-2.2,10.5,10.5,0,0,1,.38-2.56,13.3,13.3,0,0,1-1.55,1.89,12.75,12.75,0,0,1-2.13,1.75,11.65,11.65,0,0,1-2.68,1.28,10.13,10.13,0,0,1-3.23.49,6.87,6.87,0,0,1-1.52-.17,3.46,3.46,0,0,1-1.28-.57,3,3,0,0,1-.88-1.09,3.8,3.8,0,0,1-.34-1.71s0-.26.1-.73a12.75,12.75,0,0,1,.61-2.23q.51-1.52,1.59-3.93c.72-1.61,1.73-3.57,3-5.86a3.28,3.28,0,0,1,1.16-1.31,2.85,2.85,0,0,1,2.11-.31,2.46,2.46,0,0,1,.67.26,1.62,1.62,0,0,1,.51.46,1.12,1.12,0,0,1,.19.63,1.77,1.77,0,0,1-.07.46,4.76,4.76,0,0,1-.52,1.06c-.26.44-.57.94-.92,1.51s-.72,1.17-1.11,1.83-.75,1.33-1.09,2a19.51,19.51,0,0,0-.86,2.14,7.93,7.93,0,0,0-.41,2.12,1.39,1.39,0,0,0,.24.79.88.88,0,0,0,.79.36,5.65,5.65,0,0,0,3-.86,12.81,12.81,0,0,0,2.61-2.14,22.16,22.16,0,0,0,2.16-2.75c.65-1,1.18-1.88,1.62-2.7a12.62,12.62,0,0,0,.8-1.74,16.35,16.35,0,0,1,.75-1.73,5.28,5.28,0,0,1,.93-1.31,1.81,1.81,0,0,1,1.32-.53,1.77,1.77,0,0,1,1.36.55,1.88,1.88,0,0,1,.51,1.32,3.17,3.17,0,0,1-.33,1.18c-.21.51-.48,1.08-.81,1.73l-1.06,2.07c-.39.73-.74,1.47-1.07,2.23a18.31,18.31,0,0,0-.81,2.23,7,7,0,0,0-.33,2c0,.57.35.86,1.06.86a5.2,5.2,0,0,0,1.84-.43,13.6,13.6,0,0,0,2.31-1.21,21.3,21.3,0,0,0,2.41-1.83,15.83,15.83,0,0,0,2.15-2.27Z"/><path class="cls-2" d="M446.06,221.56q.93-.57,1.92-1.05c.67-.32,1.31-.6,1.93-.83a16.94,16.94,0,0,1,1.78-.55,6.91,6.91,0,0,1,1.52-.2,2.44,2.44,0,0,1,1.66.51,2.24,2.24,0,0,1,.59,1.74c0,.17,0,.36,0,.56a5.59,5.59,0,0,1-.1.64,3.88,3.88,0,0,1-.72,1.45,19.84,19.84,0,0,1-1.4,1.75c-.53.61-1.11,1.22-1.72,1.83l-1.7,1.7q-.78.78-1.29,1.35c-.34.38-.51.65-.51.79a.8.8,0,0,0,0,.26c0,.05.09.08.21.08.87-.37,1.83-.81,2.89-1.33s2.11-1,3.17-1.59,2-1.07,3-1.59,1.74-1,2.39-1.35a3.55,3.55,0,0,1,.44-.21,1.4,1.4,0,0,1,.42-.08.94.94,0,0,1,.72.29,1,1,0,0,1,.29.76,2.38,2.38,0,0,1-.47,1.26,5.79,5.79,0,0,1-1.57,1.47l-1.87,1.18-2.18,1.37c-.76.47-1.53.93-2.3,1.37s-1.52.85-2.24,1.2a18,18,0,0,1-2,.85,5.3,5.3,0,0,1-1.64.32,3.43,3.43,0,0,1-2.47-.79,2.69,2.69,0,0,1-.83-2,1,1,0,0,1,0-.29,7.33,7.33,0,0,1,.62-2,13.51,13.51,0,0,1,1-1.87c.38-.59.78-1.15,1.19-1.69s.8-1,1.14-1.5a13,13,0,0,0,.85-1.31,2.29,2.29,0,0,0,.33-1.1.67.67,0,0,0,0-.24.22.22,0,0,0-.22-.12,3.27,3.27,0,0,0-.94.22,10.32,10.32,0,0,0-1.4.57,10.54,10.54,0,0,0-1.42.83,3,3,0,0,0-.95,1c-.26.45-.55,1-.89,1.7l-1,2.15c-.36.75-.71,1.49-1,2.23s-.62,1.36-.86,1.89a4.56,4.56,0,0,1-.75,1.24,5.61,5.61,0,0,1-1,.94,5.09,5.09,0,0,1-1.13.59,2.87,2.87,0,0,1-1.05.22,1.25,1.25,0,0,1-.87-.29,1.17,1.17,0,0,1-.33-.93,3,3,0,0,1,.09-.66,3,3,0,0,1,.35-.87c.28-.54.57-1.14.87-1.77s.63-1.37,1-2.19l1.32-2.83c.51-1.06,1.1-2.28,1.79-3.67a2.46,2.46,0,0,1-.57-.7,2.19,2.19,0,0,1-.22-1,2,2,0,0,1,.24-1,1.89,1.89,0,0,1,.64-.68,2.8,2.8,0,0,1,.95-.39,4.6,4.6,0,0,1,1.13-.14,7.54,7.54,0,0,1,1.25.11,5,5,0,0,1,1.11.32,2.65,2.65,0,0,1,.8.53,1,1,0,0,1,.31.72.41.41,0,0,1,0,.19c0,.08-.06.17-.1.26l-.11.27a.59.59,0,0,0-.05.19s0,.05,0,.05h0Z"/><path class="cls-2" d="M461,220.2a2.53,2.53,0,0,1,.93-1,2.29,2.29,0,0,1,2.65.3,1.91,1.91,0,0,1,.66,1.5l-.06.43a1.62,1.62,0,0,1-.16.43c-.22.41-.41.76-.55,1l-.39.8c-.12.25-.24.49-.35.73l-.41.86c-.19.4-.4.84-.64,1.31s-.47.95-.69,1.44-.39,1-.55,1.46a4.44,4.44,0,0,0-.22,1.32.93.93,0,0,0,.32.85,1.79,1.79,0,0,0,.92.2,3.66,3.66,0,0,0,1.4-.29,8.44,8.44,0,0,0,1.47-.74,12.63,12.63,0,0,0,1.46-1c.48-.39.93-.78,1.35-1.18s.82-.78,1.18-1.15.65-.69.89-1a1.44,1.44,0,0,1,1-.46.84.84,0,0,1,.71.39,1.65,1.65,0,0,1,.27,1,3,3,0,0,1-.27,1.17,3.48,3.48,0,0,1-.9,1.17c-.81.83-1.64,1.63-2.49,2.38a21.6,21.6,0,0,1-2.6,2,13.91,13.91,0,0,1-2.66,1.4,7.42,7.42,0,0,1-2.71.53,4.42,4.42,0,0,1-3-1,4,4,0,0,1-1.11-3.1,7.52,7.52,0,0,1,.31-2.16,19.77,19.77,0,0,1,.74-2c.29-.66.59-1.3.91-1.92s.59-1.2.82-1.75c.08-.21.21-.53.41-1s.41-.87.64-1.32Zm2.63-5.38a3.36,3.36,0,0,1,.21-1.14,3.26,3.26,0,0,1,.61-1.07,3.32,3.32,0,0,1,1-.79,3.26,3.26,0,0,1,1.45-.31,2.74,2.74,0,0,1,1.94.54,1.8,1.8,0,0,1,.55,1.35,3.46,3.46,0,0,1-.72,2,2.73,2.73,0,0,1-.93.78,2.8,2.8,0,0,1-1.37.31,3.51,3.51,0,0,1-2.08-.46A1.7,1.7,0,0,1,463.64,214.82Z"/><path class="cls-2" d="M476.49,222.21c-.59,1.15-1.15,2.27-1.67,3.36s-1,2.1-1.49,3a12.2,12.2,0,0,0-.56,1.32,4.07,4.07,0,0,0-.27,1.33.84.84,0,0,0,.15.53.62.62,0,0,0,.52.19,3.63,3.63,0,0,0,1.26-.3,13.47,13.47,0,0,0,1.65-.79c.59-.33,1.22-.7,1.87-1.12s1.3-.86,1.93-1.32,1.23-.91,1.8-1.36,1.09-.88,1.53-1.26a1.35,1.35,0,0,1,.72-.26.79.79,0,0,1,.67.36,1.46,1.46,0,0,1,.26.91,2.61,2.61,0,0,1-.26,1.12,3.2,3.2,0,0,1-1,1.13q-1.56,1.41-3.15,2.67a30.22,30.22,0,0,1-3.16,2.24,17.18,17.18,0,0,1-3.1,1.54,8.27,8.27,0,0,1-3,.58,4.43,4.43,0,0,1-1.61-.25,2.69,2.69,0,0,1-1-.7,2.52,2.52,0,0,1-.56-1,4.55,4.55,0,0,1-.17-1.25,8.31,8.31,0,0,1,.41-2.49,16.27,16.27,0,0,1,.91-2.32l1.42-2.94c.47-1,.93-1.91,1.38-2.8h-1a3,3,0,0,1-1.84-.43,1.28,1.28,0,0,1-.51-1,1.42,1.42,0,0,1,.16-.59,2.11,2.11,0,0,1,.45-.65,2.8,2.8,0,0,1,.73-.51,2.24,2.24,0,0,1,1-.22h2.59l5.05-10a3.11,3.11,0,0,1,1.18-1.31,3,3,0,0,1,1.47-.39,2.45,2.45,0,0,1,1.32.38,1.4,1.4,0,0,1,.6,1.27,2.23,2.23,0,0,1-.21.92c-.13.31-.31.68-.53,1.09s-.32.6-.53,1-.43.77-.66,1.2l-.72,1.32c-.24.47-.49.91-.73,1.34-.54,1-1.11,2.1-1.72,3.23h7.8a8.5,8.5,0,0,1,1.05.06,2.45,2.45,0,0,1,.83.24,1.42,1.42,0,0,1,.54.49,1.68,1.68,0,0,1,.19.84,1.64,1.64,0,0,1-.09.53,1.16,1.16,0,0,1-.31.48,1.74,1.74,0,0,1-.62.35,4,4,0,0,1-1,.2Z"/><path class="cls-2" d="M493.36,218.09a4.11,4.11,0,0,1,3,1,3.56,3.56,0,0,1,1,2.66,4.87,4.87,0,0,1-.53,2.1,7.38,7.38,0,0,1-1.82,2.24,19,19,0,0,1-3.46,2.32,41.23,41.23,0,0,1-5.41,2.38,1.54,1.54,0,0,0,.74,1.09,3.05,3.05,0,0,0,1.65.39,9.66,9.66,0,0,0,2.35-.32,19.13,19.13,0,0,0,2.49-.83c.82-.33,1.63-.69,2.41-1.08s1.48-.77,2.12-1.12,1.15-.65,1.57-.91.71-.41.85-.47a.89.89,0,0,1,.4-.17l.32,0a.83.83,0,0,1,.48.14,1.18,1.18,0,0,1,.32.31,1,1,0,0,1,.18.38,1.72,1.72,0,0,1,0,.35,3.62,3.62,0,0,1,0,.51,1.46,1.46,0,0,1-.36.68c-.08.08-.34.3-.8.65s-1,.76-1.76,1.24-1.55,1-2.5,1.52a27.1,27.1,0,0,1-3,1.47,24,24,0,0,1-3.32,1.12,13.78,13.78,0,0,1-3.39.44,5.63,5.63,0,0,1-2.55-.55,5.84,5.84,0,0,1-1.89-1.48,6.77,6.77,0,0,1-1.19-2.16,8.07,8.07,0,0,1-.4-2.56,7.29,7.29,0,0,1,.4-2.26,12.39,12.39,0,0,1,1.18-2.48,14.65,14.65,0,0,1,1.88-2.42,13.71,13.71,0,0,1,2.5-2.1,13.22,13.22,0,0,1,3.05-1.46A11.38,11.38,0,0,1,493.36,218.09Zm-.86,3.3-.22,0h-.21a4,4,0,0,0-1.7.36,5.73,5.73,0,0,0-1.45.94,7.8,7.8,0,0,0-1.17,1.33c-.35.5-.65,1-.92,1.47a13.65,13.65,0,0,0-.68,1.4,11.55,11.55,0,0,0-.42,1.13c.55-.29,1.13-.62,1.73-1l1.69-1.06c.52-.33,1-.63,1.37-.9s.67-.46.83-.56a4.91,4.91,0,0,0,1.48-1.25,1.9,1.9,0,0,0,.41-1,.75.75,0,0,0-.23-.57A1,1,0,0,0,492.5,221.39ZM496,213c.57-1,1.15-2,1.73-3s1.16-2,1.71-3a6.61,6.61,0,0,1,1.87-2.13,3.29,3.29,0,0,1,1.72-.62,1.62,1.62,0,0,1,1.18.45,1.65,1.65,0,0,1,.45,1.2,2.87,2.87,0,0,1-.22,1.05,3.78,3.78,0,0,1-.76,1.2c-.86,1-1.73,2-2.6,3s-1.73,2-2.59,3a4.8,4.8,0,0,1-1.32,1.22,2.45,2.45,0,0,1-1.17.41c-.5,0-.74-.26-.74-.77A4.6,4.6,0,0,1,496,213Z"/></g><g id="Layer_1-2" data-name="Layer 1"><path class="cls-2" d="M295.54,75.16c-6.19-4.58-11-10.49-15.61-16.54-7.34-9.6-14-19.72-21.8-29-5.87-7-12.2-13.51-20.13-18.25-10.21-6.1-21.09-7.84-32.41-4C190.24,12.71,181,23.65,178.73,39.67a41,41,0,0,0,.52,15,49.82,49.82,0,0,0,5.7,12.6c.56.88,1.14,1.7,1.73,2.47a47.11,47.11,0,0,0,7.84,7.57,6.15,6.15,0,0,1,.65.56c1.49,1.07,2.93,2,4.29,2.85A46.25,46.25,0,0,0,217.36,88c6.9,1.14,18.62,1.36,35.75-5.7-2.22,1.09-24.19,11.69-38,11a46.67,46.67,0,0,1-10.17-1.81,44.36,44.36,0,0,1-9-4.23A33.25,33.25,0,0,1,190.33,83c-9.66,9.33-13.57,21.07-11.48,35.1,3.91,26.16,32.66,40.8,56.2,28.74,9-4.6,15.93-11.59,22.37-19.15,7.15-8.4,13.31-17.55,19.94-26.34s13.09-17.61,23.34-23A40.7,40.7,0,0,1,295.54,75.16Z"/><path class="cls-1" d="M457.56,83.79l-39.41.07,6-11.21h39.4Z"/><path class="cls-1" d="M504.67,159.75A76.09,76.09,0,0,0,513,144.57a131.16,131.16,0,0,0,5.36-15.86,104.07,104.07,0,0,0,2.85-14.61,102.1,102.1,0,0,0,.8-11.41,102.41,102.41,0,0,0-.8-11.41,104.23,104.23,0,0,0-2.85-14.6A125.76,125.76,0,0,0,513,60.93a83.91,83.91,0,0,0-8.33-15.29h42.67a88.3,88.3,0,0,0-8.44,15.29,115,115,0,0,0-5.48,15.75,104.23,104.23,0,0,0-2.85,14.6,100,100,0,0,0-.8,11.41,99.75,99.75,0,0,0,.8,11.41,104.07,104.07,0,0,0,2.85,14.61,119.65,119.65,0,0,0,5.48,15.86,79.69,79.69,0,0,0,8.44,15.18ZM513.8,15.06a11.87,11.87,0,0,1,3.3-8.78,13.33,13.33,0,0,1,17.58,0A11.88,11.88,0,0,1,538,15.06a11.92,11.92,0,0,1-3.31,8.79,13.33,13.33,0,0,1-17.58,0A11.91,11.91,0,0,1,513.8,15.06Z"/><path class="cls-1" d="M622,66q0,6.39.8,15.06t2.05,18.26q1.24,9.58,3.08,19.17t3.77,17.91q1.94,8.34,4,14.49a33,33,0,0,0,4.11,8.91H596.41q2.05-2.52,4.22-8.68a145.12,145.12,0,0,0,4.11-14.37q1.93-8.22,3.65-17.69t3-18.94q1.25-9.46,2-18.14t.8-15.06V7.07a45.73,45.73,0,0,0-13.47,3.54,90.78,90.78,0,0,0-15.06,8,123.56,123.56,0,0,0-14.49,11.07,78.81,78.81,0,0,0-11.75,12.78V0H676.28V42.45A75.71,75.71,0,0,0,664.76,29.9a119.16,119.16,0,0,0-14.61-11.07A102,102,0,0,0,635,10.73a44,44,0,0,0-13-3.66Z"/><path class="cls-1" d="M62,95.28q-28.9,0-44.34-11.25T2.21,49.63A53.83,53.83,0,0,1,6,29,46.16,46.16,0,0,1,16.32,13.34,45,45,0,0,1,31.76,3.42,52,52,0,0,1,50.73,0,52.4,52.4,0,0,1,70.58,3.75,51.56,51.56,0,0,1,86.68,13.9a47.71,47.71,0,0,1,10.81,15,43.3,43.3,0,0,1,4,18.31H94q0-2.87-2.65-6.51a26.69,26.69,0,0,0-7.94-6.83,52.66,52.66,0,0,0-13.56-5.41,76.4,76.4,0,0,0-19.52-2.2A80.61,80.61,0,0,0,33.08,27.9,50.25,50.25,0,0,0,20.4,32.31a24.58,24.58,0,0,0-7.94,6.29A12,12,0,0,0,9.7,46.1a13.29,13.29,0,0,0,3.53,8.6A29.84,29.84,0,0,0,23.6,62.09,71.35,71.35,0,0,0,40,67.16,115.22,115.22,0,0,0,62,69Q85.57,69,97.6,79.29t12,28.56A50,50,0,0,1,105.54,128,47.15,47.15,0,0,1,94,144.25,54.45,54.45,0,0,1,76.2,154.94a63.74,63.74,0,0,1-22.6,3.86,75.69,75.69,0,0,1-21.29-2.86,101.76,101.76,0,0,1-16.87-6.4A73.85,73.85,0,0,1,0,140.06l.22-31.32a103.43,103.43,0,0,0,17.87,15A96.62,96.62,0,0,0,38.27,134,71.06,71.06,0,0,0,64,138.51a64.27,64.27,0,0,0,14.89-1.65,43.66,43.66,0,0,0,12-4.63,26.87,26.87,0,0,0,8-6.95,14,14,0,0,0,3-8.6,13.31,13.31,0,0,0-3.09-8.5,27,27,0,0,0-8.38-6.72,49.28,49.28,0,0,0-12.57-4.52A71.22,71.22,0,0,0,62,95.28Z"/><path class="cls-1" d="M328.56,72.66q7.5,0,12.8-7.8a50.64,50.64,0,0,0,7.48-19,74,74,0,0,0,.63-23.56A47.76,47.76,0,0,0,342,1.21H397.2q-5.93,8.43-12.63,20T370.53,44A240.55,240.55,0,0,1,355.4,64.71q-7.81,9.51-15.92,13.57,8.11,4.36,16.7,14a242.26,242.26,0,0,1,16.69,21.21q8.1,11.55,15.6,23.4t13.41,20.28H343.54q5.93-8.73,7.18-21.37a74.9,74.9,0,0,0-1.41-24.18A58.32,58.32,0,0,0,341.2,92q-5.46-8.12-12.64-8.12T315.93,92a58.12,58.12,0,0,0-8.11,19.65,77.17,77.17,0,0,0-1.56,24.18q1.08,12.65,7.33,21.37h-58q5.91-8.42,13.26-20.28t15.44-23.4A240.38,240.38,0,0,1,301,92.32q8.58-9.67,16.69-14-8.11-4.05-15.91-13.57A236.38,236.38,0,0,1,286.6,44q-7.34-11.24-14-22.78t-12.64-20h55.23a44.15,44.15,0,0,0-7.65,21.06,77.5,77.5,0,0,0,.78,23.56,50.65,50.65,0,0,0,7.49,19Q321.08,72.66,328.56,72.66Z"/><path class="cls-1" d="M158.75,66.25a40.29,40.29,0,0,0,9.82,9.89l1.33.94a7.17,7.17,0,0,0,1.17.6l.81.28.81.26.81.25.82.23.83.23.82.21.83.21.12,0,0,0h-.05l-.11,0-.21.07-.42.12-.84.24-.85.25-.84.24-.85.25-.84.24a11.53,11.53,0,0,0-1.8.75,7,7,0,0,0-.88.51l-.34.26-.18.15a45.32,45.32,0,0,0-14.33,18.87,41.65,41.65,0,0,0-2.1,23.61,40.62,40.62,0,0,0,1.72,5.8c.41.92.74,1.89,1.23,2.77a28.93,28.93,0,0,0,1.43,2.7,40.13,40.13,0,0,0,7.73,9.59,48.21,48.21,0,0,0,22.5,11.36c-31.38,7.71-58.75-13.92-60.29-36.65-1.23-18.16,14-38.21,37.55-44l-1.45,2.64,0-.33,1.57,3.39c-23-6.23-38.18-24.89-37.69-42.11.65-22.43,28.05-45.81,61.73-38.92a45,45,0,0,0-23.06,11A40.84,40.84,0,0,0,154,57.26a40.18,40.18,0,0,0,2,4.55c.38.73.79,1.46,1.22,2.17.3.5.64,1,.94,1.49.22.35.31.75.5,1.12a5,5,0,0,0,1.07,1.22c.44.43.9.85,1.36,1.27.92.83,1.87,1.62,2.84,2.39s2,1.49,3,2.18,2.08,1.35,3.16,2,2.17,1.19,3.29,1.73,2.25,1,3.4,1.5q.78.32,1.56.6A50.16,50.16,0,0,0,156,96.75"/><line class="cls-3" x1="153.95" y1="66.94" x2="152.8" y2="65.34"/></g></g></svg>